<svg xmlns="http://www.w3.org/2000/svg" viewBox="0 0 64 64" width="64" height="64">
  <rect x="2" y="2" width="60" height="60" rx="14" fill="#1a1b26"/>
  <path d="M20 14c-1.7 0-3 1.3-3 3v30c0 1.7 1.3 3 3 3h24c1.7 0 3-1.3 3-3V17c0-1.7-1.3-3-3-3H20zm0 4h24v28H20V18z" fill="#7aa2f7"/>
  <rect x="22" y="21" width="20" height="3" rx="1.5" fill="#7aa2f7"/>
  <rect x="22" y="27" width="20" height="3" rx="1.5" fill="#7aa2f7"/>
  <rect x="22" y="33" width="13" height="3" rx="1.5" fill="#7aa2f7"/>
  <path d="M44 40l6 3-2 3-6-3v-3z" fill="#9ece6a"/>
  <path d="M41 36h2l7 4-2 3-7-4v-3z" fill="#9ece6a"/>
</svg>